<?xml version="1.0" encoding="UTF-8" standalone="no"?>
<!-- Created with Inkscape (http://www.inkscape.org/) -->

<svg
   version="1.1"
   id="svg2"
   xml:space="preserve"
   width="673.67999"
   height="673.67999"
   viewBox="0 0 673.67999 673.67999"
   sodipodi:docname="loading.eps"
   xmlns:inkscape="http://www.inkscape.org/namespaces/inkscape"
   xmlns:sodipodi="http://sodipodi.sourceforge.net/DTD/sodipodi-0.dtd"
   xmlns="http://www.w3.org/2000/svg"
   xmlns:svg="http://www.w3.org/2000/svg"><defs
     id="defs6" /><sodipodi:namedview
     id="namedview4"
     pagecolor="#ffffff"
     bordercolor="#666666"
     borderopacity="1.0"
     inkscape:pageshadow="2"
     inkscape:pageopacity="0.0"
     inkscape:pagecheckerboard="0" /><g
     id="g8"
     inkscape:groupmode="layer"
     inkscape:label="ink_ext_XXXXXX"
     transform="matrix(1.3333333,0,0,-1.3333333,0,673.68)"><g
       id="g10"
       transform="scale(0.1)"><path
         d="m 2216.85,4498.36 c -106.53,-61.37 -190.77,-164.46 -227.29,-278.14 -8.57,-26.68 -6.4,-27.45 54.23,-19.37 69.48,9.26 134.57,-7.12 184.42,-46.42 41.69,-32.85 45.57,-69.84 5.06,-48.18 -15.61,8.34 -61.9,12.1 -112.42,9.13 -74.53,-4.39 -91.08,-9.97 -125.06,-42.2 -130.78,-124.07 -187.87,-386.02 -131.47,-603.28 36.73,-141.47 160.83,-351.06 183.25,-309.47 4.92,9.12 12.76,41.68 17.63,73.26 27.12,175.58 81.77,328.31 155.94,435.79 34.64,50.2 35.5,50.57 131.5,56.84 89.68,5.86 99.9,9.46 142.1,49.99 59.31,56.96 138.68,220.33 165.94,341.59 23.86,106.11 14.05,170.93 -37.25,246.32 -64.65,94.99 -199.43,170.53 -304.27,170.53 -21.93,0 -66.95,-16.02 -102.31,-36.39"
         style="fill:#000000;fill-opacity:1;fill-rule:nonzero;stroke:none"
         id="path12" /><path
         d="m 3113.69,4450.16 c -13.98,-2.82 -91.58,-37.27 -173.69,-77.1 l -148.42,-72 v -101.05 c 0,-169.27 -46.5,-299.13 -147,-410.53 -52.42,-58.1 -53.27,-78.98 -5.17,-127.58 49.12,-49.63 76.95,-46.74 121.26,12.63 46.77,62.66 119.33,110.85 203.97,135.44 88.42,25.7 106.49,11.08 39.15,-31.68 -69.2,-43.93 -133.71,-117.65 -164.87,-188.39 -28.32,-64.3 -25.23,-140.21 9.36,-229.9 26.68,-69.18 20.85,-232.41 -12.33,-344.84 -11.93,-40.42 -18.23,-76.66 -14.05,-80.84 18.67,-18.68 169.26,69.82 242.53,142.52 93.47,92.76 149.46,199.8 177.85,340.01 11.26,55.58 32.9,120.95 48.1,145.26 59.8,95.7 110.2,253.9 117.09,367.58 10.1,166.74 -43.96,370.95 -121.39,458.53 -37.68,42.61 -120.6,72.41 -172.39,61.94"
         style="fill:#000000;fill-opacity:1;fill-rule:nonzero;stroke:none"
         id="path14" /><path
         d="m 751.691,3991.59 c -2.144,-3.48 -24.363,-97.27 -49.375,-208.43 -24.929,-110.79 -79.429,-353.05 -120.632,-536.21 -41.2,-183.16 -73.161,-336.1 -70.735,-338.52 2.418,-2.43 103.578,35.3 223.578,83.36 120,48.07 262.024,99.66 313.893,114.03 104.85,29.03 312.38,64.71 376.42,64.71 h 41.69 l -3.79,-641.05 -3.79,-641.05 -97.9,-184.43 c -53.64,-101.05 -97.89,-188.13 -97.89,-192.63 0,-4.55 28.42,-8.21 63.79,-8.21 h 63.79 l -10.11,-60 c -5.55,-32.98 -9.82,-108.63 -9.47,-168 0.53,-90.95 6.07,-119.17 35.04,-178.74 84.2,-173.061 285.17,-263.018 468.33,-209.623 38.84,11.324 82.11,45.285 173.05,135.833 134.7,134.11 176.96,205.16 206.95,347.9 24.68,117.47 25.51,271.58 1.47,271.58 -9.76,0 -72,-50.01 -138.95,-111.64 -151.57,-139.55 -233.48,-183.28 -354.94,-189.51 -49.27,-2.53 -92.32,-10.69 -97.22,-18.43 -15.35,-24.27 -10.83,-103.58 9.14,-160.42 24.85,-70.74 24.26,-72.71 -11.71,-38.74 -35.77,33.78 -79.72,130.95 -83.24,184 -4.51,68.21 -0.45,83.04 31.45,114.95 26.81,26.81 41.05,30.31 123.16,30.31 73.26,0 105.89,6.58 154.74,31.22 66.94,33.76 233.68,177.32 233.68,201.2 0,10.03 -70.74,12.67 -253.9,9.48 -140.21,-2.44 -258.98,0.67 -265.26,6.95 -6.31,6.3 2.69,44.84 20.21,86.52 l 31.58,75.16 v 754.74 754.74 l -123.79,-0.35 c -216,-0.6 -436.52,-38.06 -644.212,-109.44 -50.527,-17.36 -95.066,-28.86 -98.527,-25.44 -7.504,7.43 104.348,511.65 119.664,539.44 8.813,15.99 72.969,19.93 411.495,25.26 l 401.06,6.32 30.31,82.1 c 16.79,45.48 31.64,86.62 33.29,92.21 2.97,10.11 -1026.112,18.92 -1032.339,8.85"
         style="fill:#000000;fill-opacity:1;fill-rule:nonzero;stroke:none"
         id="path16" /><path
         d="m 3595.59,3633.48 c -118.74,-15.07 -126.09,-17.81 -160.93,-60 -48.26,-58.46 -55.53,-77.05 -78.63,-200.84 -11.07,-59.37 -36.96,-140.12 -57.92,-180.64 l -37.9,-73.26 42.95,-18.23 c 70.74,-30.03 98.64,-24.3 125.56,25.81 27.84,51.84 92.97,104.77 157.39,127.93 54.32,19.54 114.95,22.01 114.95,4.7 0,-7.22 -7.58,-12.63 -17.68,-12.63 -29.61,0 -169.27,-109.89 -179.79,-141.47 -5.39,-16.14 -8.2,-44.21 -6.34,-63.16 4.86,-49.68 -34.05,-193.26 -81.83,-301.9 -23.34,-53.05 -42.78,-109.89 -42.78,-125.05 0,-34.37 20.21,-28.58 165.47,47.41 118.74,62.11 221.26,152.88 274.61,243.12 18.6,31.46 65.18,87.98 104.34,126.6 82.56,81.42 112.42,153.82 112.42,272.56 0,103.57 -37.83,203.45 -105.26,277.89 -50,55.2 -56.42,58.33 -128.42,62.53 -41.55,2.42 -132,-2.71 -200.21,-11.37"
         style="fill:#000000;fill-opacity:1;fill-rule:nonzero;stroke:none"
         id="path18" /><path
         d="m 2238.32,2604.64 3.79,-771.8 41.68,-35.59 c 46.79,-39.95 76.35,-114.72 87.3,-220.83 l 7.44,-72 64.42,-3.79 64.42,-3.79 8.79,-89.68 c 20.32,-207.16 98.95,-319.11 260.27,-370.56 78.05,-24.89 107.36,-27.79 226.1,-22.38 199.58,9.1 272.31,39.05 353.02,145.36 72.93,96.07 82.4,173.05 89.97,731.37 3.68,271.58 2.43,520.62 -2.78,553.26 l -9.47,59.37 -59.37,-7.74 c -70.74,-9.23 -114.95,14.64 -114.95,62.06 0,16.69 13.63,61.26 30.32,99.16 16.69,37.89 34.29,86.44 39.16,108 l 8.84,39.15 H 3217.9 c -65.69,0 -122.49,-3.12 -126.31,-6.94 -3.85,-3.84 33.41,-81.48 83.36,-173.69 l 90.32,-166.73 v -524.21 c 0,-399.16 -4.08,-540.19 -17.1,-591.16 -29.99,-117.39 -116.79,-161.59 -298.69,-152.1 -130.1,6.79 -192.55,35.73 -227.37,105.36 -23.94,47.87 -25.46,79.58 -29.05,603.79 l -3.79,553.26 89.05,168 c 48.88,92.21 89.06,171.71 89.06,176.21 0,4.54 -96,8.21 -214.74,8.21 H 2437.9 v 183.17 183.15 h 34.74 c 19.29,0 85.26,-8.42 148.42,-18.94 63.15,-10.53 120.42,-19.02 128.84,-19.09 17.74,-0.16 23.21,159.3 6.37,185.82 -14.76,23.25 -146.58,42.87 -341.11,50.77 l -180.63,7.34 z m 319.31,11.36 c 4.25,-6.84 -5.18,-40.42 -20.57,-73.26 -27.57,-58.8 -28.34,-70.74 -25.65,-395.37 3.01,-363.79 -4.16,-411.3 -47.64,-315.79 -24.06,52.87 -25.87,82.11 -25.87,418.11 0,198.31 2.85,364.11 6.31,367.58 12.41,12.4 105.58,11.37 113.42,-1.27"
         style="fill:#000000;fill-opacity:1;fill-rule:nonzero;stroke:none"
         id="path20" /><path
         d="m 3804.01,2715.16 -92.85,-87.79 h 152.22 c 83.36,0 155.35,-5.14 159.15,-11.37 3.87,-6.32 -5.65,-38.52 -21.47,-72.63 -27.82,-59.96 -28.58,-73.89 -36,-654.94 -7.05,-552.01 -9.44,-600.52 -34.15,-690.95 -37.25,-136.43 -83.22,-219.667 -164.17,-297.304 -153.61,-147.332 -410.53,-217.86 -792,-217.422 -366.31,0.422 -613.03,65.262 -780.63,205.164 l -60.63,50.609 -56.21,-54.945 c -30.32,-29.637 -56.22,-61.934 -56.22,-70.105 0,-8.247 32.85,-42.125 72,-74.274 117.61,-96.558 251.38,-156.199 445.9,-198.812 103.68,-22.711 162.95,-26.371 435.79,-26.918 300.64,-0.598 322.76,1.019 461.06,33.699 334.73,79.109 547.06,249.133 638.59,511.358 58.57,167.8 68.77,293.05 68.77,843.79 0,354.95 4.54,519.38 15.16,549.47 8.37,23.7 50.83,108.64 94.74,189.48 43.9,80.84 79.58,150.21 79.58,154.73 0,4.53 -97.9,7.93 -217.9,7.58 l -217.89,-0.63 -92.84,-87.79"
         style="fill:#000000;fill-opacity:1;fill-rule:nonzero;stroke:none"
         id="path22" /></g></g></svg>
